<?xml version="1.0" standalone="no"?><!DOCTYPE svg PUBLIC "-//W3C//DTD SVG 1.1//EN" "http://www.w3.org/Graphics/SVG/1.1/DTD/svg11.dtd"><svg t="1599028915047" class="icon" viewBox="0 0 1024 1024" version="1.1" xmlns="http://www.w3.org/2000/svg" p-id="3581" xmlns:xlink="http://www.w3.org/1999/xlink" width="200" height="200"><defs><style type="text/css"></style></defs><path d="M590.08 631.466667h-136.533333c-28.16 0-51.2 23.04-51.2 51.2v204.8c0 28.16 23.04 51.2 51.2 51.2h17.066666v-238.933334h102.4v238.933334h17.066667c28.16 0 51.2-23.04 51.2-51.2v-204.8c0-28.586667-22.613333-51.2-51.2-51.2z" fill="#d81e06" p-id="3582"></path><path d="M308.48 512h-68.266667v375.466667c0 28.16 23.04 51.2 51.2 51.2h179.2v-68.266667h-162.133333v-358.4zM735.146667 516.266667v354.133333h-162.133334v68.266667h179.2c28.16 0 51.2-23.04 51.2-51.2v-375.466667h-68.266666v4.266667z" fill="#d81e06" p-id="3583"></path><path d="M931.84 467.626667l-392.533333-375.04c-9.813333-9.386667-25.6-9.386667-35.413334 0l-392.533333 375.04c-17.493333 16.64-4.693333 44.8 20.053333 44.8h176.64v-42.666667c0-14.08-11.52-25.6-25.6-25.6h-46.933333l286.72-273.92 286.72 273.92h-47.786667c-14.08 0-25.6 11.52-25.6 25.6v42.666667h176.64c24.746667-0.426667 37.12-28.16 19.626667-44.8z" fill="#d81e06" p-id="3584"></path></svg>